Coordinates
version=1
nRows=16
nColumns=40
inDegrees=yes

Units are S.I. units (second, meters, Newtons, ...)
Angles are in degrees.

endheader
time	pelvis_tilt	pelvis_list	pelvis_rotation	pelvis_tx	pelvis_ty	pelvis_tz	hip_flexion_r	hip_adduction_r	hip_rotation_r	knee_angle_r	knee_angle_r_beta	ankle_angle_r	subtalar_angle_r	mtp_angle_r	hip_flexion_l	hip_adduction_l	hip_rotation_l	knee_angle_l	knee_angle_l_beta	ankle_angle_l	subtalar_angle_l	mtp_angle_l	lumbar_extension	lumbar_bending	lumbar_rotation	arm_flex_r	arm_add_r	arm_rot_r	elbow_flex_r	pro_sup_r	wrist_flex_r	wrist_dev_r	arm_flex_l	arm_add_l	arm_rot_l	elbow_flex_l	pro_sup_l	wrist_flex_l	wrist_dev_l
     49.46000000	     -4.06243869	     -4.14016061	      1.39723858	      1.13915566	      0.93453294	      0.42661435	     31.65997200	     -8.35808968	     -6.00614919	     70.42078447	     70.42078447	     -0.95941839	    -16.00561091	      0.95171102	     14.54129799	     -2.98676083	     -8.05854201	     19.49104229	     19.49104229	     11.40880743	     -9.91769931	     -2.11786480	     -9.16606376	      6.13687531	      2.02269509	      8.81678734	    -12.69778876	     -8.08726147	     50.49498681	     44.97237716	      0.00000000	      0.00000000	     14.41125700	    -12.09321160	      4.89236038	     44.44927860	     45.31563778	      0.00000000	      0.00000000
     49.47157143	     -3.93008868	     -4.19108108	      1.11184020	      1.13778414	      0.93539253	      0.42661028	     32.79124707	     -8.12646342	     -5.70831726	     68.70389316	     68.70389316	     -0.87868808	    -15.46732404	      0.67862247	     13.29376185	     -2.99997423	     -8.22259392	     18.59700242	     18.59700242	     11.62234933	     -9.82790895	     -2.12377702	     -9.50462002	      6.29375448	      2.59374637	      6.60985810	    -12.92503365	     -7.88391019	     47.53894625	     45.07141504	      0.00000000	      0.00000000	     16.70943049	    -12.28098746	      4.75954905	     45.75627390	     45.37910776	      0.00000000	      0.00000000
     49.48314286	     -3.86735112	     -4.29443903	      0.88039642	      1.13636335	      0.93598920	      0.42669690	     33.77932433	     -7.81846676	     -5.51658489	     66.65656269	     66.65656269	     -1.21868640	    -15.22893730	     -0.42619621	     12.23688935	     -3.12109142	     -8.54656079	     17.86946652	     17.86946652	     11.63822990	     -9.52356621	     -2.96616472	     -9.65814680	      6.47365545	      2.18002379	      6.45565502	    -12.41405871	     -7.91178964	     40.54233742	     45.37303988	      0.00000000	      0.00000000	     18.32056120	    -13.26578464	      5.29841659	     47.57361990	     45.42702940	      0.00000000	      0.00000000
     49.49471429	     -3.76606095	     -4.38840962	      0.62442732	      1.13502473	      0.93658003	      0.42673001	     34.57927201	     -7.49647717	     -5.33652126	     64.39689945	     64.39689945	     -1.22112191	    -14.76170903	     -0.31078534	     11.09848253	     -3.20098630	     -8.83198675	     17.08920098	     17.08920098	     11.90575107	     -9.17734345	     -3.03722221	    -10.01606049	      6.69847929	      2.61637189	      4.30336015	    -12.55823967	     -7.80635051	     38.22459383	     45.45136886	      0.00000000	      0.00000000	     20.34418898	    -13.50702433	      4.98091015	     49.29522787	     45.50715358	      0.00000000	      0.00000000
     49.50628571	     -3.72147643	     -4.43246639	      0.40101702	      1.13365101	      0.93690287	      0.42679176	     35.28087173	     -7.24507859	     -5.24181894	     61.87386775	     61.87386775	     -1.34736909	    -14.34795968	     -0.42950337	     10.08608033	     -3.25284178	     -9.25576691	     16.38867741	     16.38867741	     11.97406937	     -8.73911998	     -3.77937323	    -10.21012015	      6.81806113	      2.05849898	      4.40340622	    -12.07054917	     -8.18296985	     31.48786621	     45.78417501	      0.00000000	      0.00000000	     21.51057969	    -14.61291848	      4.91097285	     51.98700646	     45.63192780	      0.00000000	      0.00000000
     49.51785714	     -3.71569696	     -4.45635803	      0.15046482	      1.13233017	      0.93703509	      0.42681972	     35.85631770	     -7.00677096	     -5.20172560	     59.07392829	     59.07392829	     -1.29923966	    -13.81235019	     -0.16907150	      9.09031738	     -3.23437468	     -9.52288527	     15.65550287	     15.65550287	     12.26165830	     -8.40951196	     -3.85934928	    -10.45498279	      6.98305640	      2.40013630	      2.36656063	    -12.18267097	     -8.24817301	     29.54986784	     45.86262445	      0.00000000	      0.00000000	     23.37227040	    -14.88682728	      4.47423675	     53.62906947	     45.72009394	      0.00000000	      0.00000000
     49.52942857	     -3.74551713	     -4.44253569	     -0.07356759	      1.13103504	      0.93698302	      0.42684444	     36.28370226	     -6.82083772	     -5.27310481	     55.95178712	     55.95178712	     -1.25447201	    -13.20625531	      0.06481573	      8.16609924	     -3.18250427	     -9.83304458	     14.96804780	     14.96804780	     12.51969626	     -8.00978081	     -4.05666379	    -10.62524532	      7.09727879	      2.56999850	      0.57845895	    -12.23265645	     -8.36942142	     27.37837870	     45.96075405	      0.00000000	      0.00000000	     25.04981215	    -15.24022404	      4.10685090	     55.37460467	     45.80016362	      0.00000000	      0.00000000
     49.54100000	     -3.90779507	     -4.44458875	     -0.24244780	      1.12972137	      0.93658455	      0.42683911	     36.64747764	     -6.67680060	     -5.60247802	     52.49585259	     52.49585259	     -1.15540361	    -12.54709962	      0.30825284	      7.43355195	     -3.13712272	    -10.08432950	     14.34995861	     14.34995861	     12.77149953	     -7.66348297	     -4.24387304	    -10.63101430	      7.27275874	      2.47696528	     -1.19697671	    -12.23761676	     -8.49539716	     25.66916855	     46.03846198	      0.00000000	      0.00000000	     26.56297104	    -15.74375971	      3.74105695	     56.90505565	     45.87020032	      0.00000000	      0.00000000
     49.55257143	     -3.92453052	     -4.26363553	     -0.52709401	      1.12866178	      0.93618687	      0.42704002	     36.70982682	     -6.59532367	     -5.78720702	     48.77736306	     48.77736306	     -1.10027615	    -11.68730167	      0.14934182	      6.41563345	     -2.90638493	    -10.59352203	     13.55891097	     13.55891097	     12.96818997	     -7.07719492	     -4.68469014	    -10.82943752	      7.14709784	      2.73629343	     -2.75352989	    -12.20867688	     -8.91165360	     23.00087343	     46.20373082	      0.00000000	      0.00000000	     27.88589744	    -16.18651432	      3.25865200	     59.69360395	     45.97587654	      0.00000000	      0.00000000
     49.56414286	     -4.13252166	     -4.19396221	     -0.69680041	      1.12763736	      0.93538822	      0.42723998	     36.64014527	     -6.43906086	     -6.31444056	     44.55674784	     44.55674784	     -1.46496343	    -10.95959560	     -1.24020716	      5.71348993	     -2.80478467	    -10.93817857	     12.92460988	     12.92460988	     13.00042093	     -6.64963558	     -5.62141129	    -10.75488775	      7.19206939	      1.67199430	     -3.09148978	    -11.98424172	    -10.84334134	     19.56790322	     46.64251721	      0.00000000	      0.00000000	     27.80587198	    -17.60731811	      2.05999543	     63.80960427	     46.20005467	      0.00000000	      0.00000000
     49.57571429	     -4.37691174	     -4.11017081	     -0.89419048	      1.12678695	      0.93439046	      0.42754613	     36.46921051	     -6.22583331	     -6.90047125	     40.23570964	     40.23570964	     -1.22209639	     -9.73689754	     -0.82384882	      5.06134997	     -2.66670849	    -11.13749006	     12.36418332	     12.36418332	     13.32947859	     -6.38951031	     -5.73858609	    -10.52981662	      7.23249503	      1.64858938	     -5.06300043	    -12.10088290	    -11.07875041	     18.74622262	     46.69634384	      0.00000000	      0.00000000	     29.20071432	    -18.00038789	      1.60493072	     65.01507205	     46.26942824	      0.00000000	      0.00000000
     49.58728571	     -4.41298521	     -3.90890799	     -1.10644876	      1.12631082	      0.93345015	      0.42791376	     35.88973826	     -6.11015644	     -7.62714645	     35.80560635	     35.80560635	     -0.80242812	     -7.98057177	     -0.55220365	      4.06181136	     -2.39566342	    -11.55564859	     11.62820772	     11.62820772	     13.61300514	     -5.83849478	     -5.97169109	    -10.62715587	      7.12758894	      2.01989089	     -7.20160931	    -12.19279184	    -11.53921778	     18.01921480	     46.77934366	      0.00000000	      0.00000000	     30.45444178	    -18.14036848	      1.06911056	     67.20176279	     46.36502953	      0.00000000	      0.00000000
     49.59885714	     -4.53829029	     -3.65287734	     -1.34838772	      1.12601690	      0.93213216	      0.42849310	     35.31100935	     -5.97284906	     -8.41107305	     31.42570115	     31.42570115	     -0.46299034	     -5.95282957	     -0.02046717	      3.16492015	     -2.09301492	    -12.04147211	     10.93307276	     10.93307276	     13.90890317	     -5.12937936	     -6.49854441	    -10.61303310	      6.90458657	      1.91860046	     -9.29660365	    -12.19269116	    -12.81127285	     18.04235714	     46.94945007	      0.00000000	      0.00000000	     30.99024997	    -18.67244782	      0.22055845	     70.44297700	     46.52081051	      0.00000000	      0.00000000
     49.61042857	     -4.62060096	     -3.52234022	     -1.53527726	      1.12593781	      0.93071607	      0.42929701	     34.48910588	     -5.57790565	     -9.15651654	     27.04020580	     27.04020580	     -0.15251317	     -4.24515133	      0.91032313	      2.33224044	     -1.93410470	    -12.26129288	     10.47613188	     10.47613188	     14.29763556	     -4.86301125	     -6.73820696	    -10.49989930	      6.82293748	      1.90557979	    -11.16405066	    -12.26433268	    -13.17778663	     17.57361672	     47.00403845	      0.00000000	      0.00000000	     32.02583434	    -19.05216881	     -0.21778030	     71.96578203	     46.59409150	      0.00000000	      0.00000000
     49.62200000	     -4.74993814	     -3.14691394	     -1.77445139	      1.12606920	      0.92888207	      0.43030755	     33.83854930	     -5.36013414	     -9.69461601	     23.21911686	     23.21911686	      0.16830340	     -2.59227522	      1.90830854	      1.56227703	     -1.51808458	    -12.58819678	     10.06186107	     10.06186107	     14.68924003	     -4.59349572	     -6.99644129	    -10.28364071	      6.41875187	      1.94366726	    -12.92957295	    -12.17590616	    -13.45914209	     17.23539577	     47.03815324	      0.00000000	      0.00000000	     33.07882775	    -19.48878445	     -0.65976175	     73.49640675	     46.66413600	      0.00000000	      0.00000000
     49.63357143	     -4.58941987	     -3.05609452	     -1.92137946	      1.12670831	      0.92740352	      0.43128769	     32.97539780	     -5.07528034	    -10.92321463	     20.33218631	     20.33218631	      2.20584933	      0.22131863	      7.17292588	      0.37261214	     -1.42226104	    -12.98310809	      9.52526696	      9.52526696	     15.17917271	     -3.72131738	     -7.54835706	    -10.55922288	      6.38415527	      1.61466752	    -15.26174216	    -12.23575401	    -16.01599042	     19.37225739	     47.25082803	      0.00000000	      0.00000000	     32.59471972	    -20.14975542	     -2.06665825	     78.10911653	     46.92420718	      0.00000000	      0.00000000
